<?xml version="1.0" encoding="UTF-8"?>
<svg width="443px" height="314px" viewBox="0 0 443 314" version="1.1" xmlns="http://www.w3.org/2000/svg" xmlns:xlink="http://www.w3.org/1999/xlink">
    <!-- Generator: Sketch 47.1 (45422) - http://www.bohemiancoding.com/sketch -->
    <title>Artboard</title>
    <desc>Created with Sketch.</desc>
    <defs></defs>
    <g id="Page-1" stroke="none" stroke-width="1" fill="none" fill-rule="evenodd">
        <g id="Artboard" fill-rule="nonzero" fill="#FFFFFF">
            <g id="ppcom-white" transform="translate(19.000000, 108.000000)">
                <g id="Group" transform="translate(118.000000, 21.000000)">
                    <path d="M193.628,0.955 L171.377,0.955 C169.856,0.955 168.561,2.062 168.324,3.565 L159.326,60.618 C159.149,61.744 160.018,62.762 161.158,62.762 L172.575,62.762 C173.639,62.762 174.547,61.988 174.712,60.935 L177.264,44.761 C177.501,43.258 178.796,42.151 180.318,42.151 L187.359,42.151 C202.014,42.151 210.472,35.058 212.683,21.001 C213.678,14.853 212.723,10.022 209.844,6.64 C206.68,2.921 201.072,0.955 193.628,0.955 Z M196.196,21.792 C194.98,29.779 188.881,29.779 182.98,29.779 L179.624,29.779 L181.978,14.867 C182.121,13.965 182.898,13.301 183.81,13.301 L185.349,13.301 C189.365,13.301 193.159,13.301 195.114,15.589 C196.285,16.959 196.638,18.988 196.196,21.792 Z" id="Shape"></path>
                    <path d="M34.932,0.955 L12.682,0.955 C11.161,0.955 9.866,2.062 9.628,3.565 L0.63,60.618 C0.453,61.744 1.323,62.762 2.463,62.762 L13.087,62.762 C14.608,62.762 15.903,61.656 16.141,60.153 L18.569,44.761 C18.806,43.258 20.101,42.151 21.622,42.151 L28.663,42.151 C43.319,42.151 51.777,35.058 53.988,21.001 C54.983,14.853 54.028,10.022 51.15,6.64 C47.984,2.921 42.375,0.955 34.932,0.955 Z M37.5,21.792 C36.284,29.779 30.184,29.779 24.285,29.779 L20.928,29.779 L23.282,14.867 C23.425,13.965 24.201,13.301 25.114,13.301 L26.653,13.301 C30.669,13.301 34.463,13.301 36.418,15.589 C37.588,16.959 37.942,18.988 37.5,21.792 Z" id="Shape"></path>
                    <path d="M101.435,21.537 L90.782,21.537 C89.869,21.537 89.092,22.201 88.949,23.103 L88.481,26.082 L87.736,25.003 C85.428,21.654 80.286,20.535 75.151,20.535 C63.381,20.535 53.325,29.455 51.368,41.965 C50.349,48.206 51.795,54.171 55.334,58.334 C58.585,62.159 63.225,63.751 68.753,63.751 C78.24,63.751 83.503,57.655 83.503,57.655 L83.027,60.617 C82.848,61.743 83.718,62.762 84.859,62.762 L94.454,62.762 C95.975,62.762 97.269,61.656 97.507,60.154 L103.267,23.681 C103.445,22.554 102.575,21.537 101.435,21.537 Z M86.587,42.275 C85.558,48.362 80.725,52.449 74.561,52.449 C71.471,52.449 68.997,51.455 67.407,49.573 C65.831,47.708 65.238,45.05 65.738,42.09 C66.697,36.057 71.608,31.838 77.678,31.838 C80.703,31.838 83.16,32.841 84.781,34.741 C86.413,36.654 87.054,39.329 86.587,42.275 Z" id="Shape"></path>
                    <path d="M260.131,21.537 L249.478,21.537 C248.565,21.537 247.788,22.201 247.646,23.103 L247.177,26.082 L246.432,25.003 C244.124,21.654 238.982,20.535 233.847,20.535 C222.076,20.535 212.021,29.455 210.065,41.965 C209.046,48.206 210.492,54.171 214.031,58.334 C217.282,62.159 221.922,63.751 227.45,63.751 C236.937,63.751 242.2,57.655 242.2,57.655 L241.724,60.617 C241.545,61.743 242.415,62.762 243.556,62.762 L253.151,62.762 C254.672,62.762 255.966,61.656 256.204,60.154 L261.964,23.681 C262.142,22.554 261.271,21.537 260.131,21.537 Z M245.284,42.275 C244.255,48.362 239.423,52.449 233.259,52.449 C230.168,52.449 227.695,51.455 226.104,49.573 C224.529,47.708 223.935,45.05 224.435,42.09 C225.395,36.057 230.304,31.838 236.374,31.838 C239.399,31.838 241.856,32.841 243.478,34.741 C245.109,36.654 245.75,39.329 245.284,42.275 Z" id="Shape"></path>
                    <path d="M158.181,21.537 L147.472,21.537 C146.448,21.537 145.49,22.046 144.914,22.893 L130.142,44.649 L123.881,23.742 C123.489,22.434 122.285,21.536 120.92,21.536 L110.393,21.536 C109.122,21.536 108.228,22.786 108.637,23.99 L120.429,58.602 L109.338,74.25 C108.467,75.479 109.346,77.178 110.852,77.178 L121.55,77.178 C122.564,77.178 123.513,76.681 124.091,75.847 L159.705,24.448 C160.557,23.219 159.677,21.537 158.181,21.537 Z" id="Shape"></path>
                    <path d="M272.69,2.522 L263.557,60.619 C263.38,61.744 264.25,62.762 265.389,62.762 L274.574,62.762 C276.095,62.762 277.39,61.656 277.628,60.153 L286.632,3.1 C286.81,1.974 285.94,0.956 284.8,0.956 L274.523,0.956 C273.609,0.955 272.832,1.62 272.69,2.522 Z" id="Shape"></path>
                </g>
                <g id="Group">
                    <path d="M74.981,24.944 C76.179,17.306 74.973,12.11 70.842,7.402 C66.294,2.22 58.078,0 47.566,0 L17.052,0 C14.904,0 13.074,1.563 12.74,3.686 L0.033,84.258 C-0.217,85.848 1.012,87.285 2.62,87.285 L21.458,87.285 L20.158,95.53 C19.939,96.921 21.013,98.178 22.421,98.178 L38.3,98.178 C40.179,98.178 41.779,96.811 42.072,94.954 L42.228,94.146 L45.219,75.178 L45.412,74.13 C45.705,72.274 47.305,70.905 49.184,70.905 L51.559,70.905 C66.942,70.905 78.987,64.656 82.506,46.582 C83.977,39.03 83.216,32.726 79.327,28.294 C78.152,26.956 76.688,25.848 74.981,24.944 L74.981,24.944" id="Shape" opacity="0.68"></path>
                    <path d="M74.981,24.944 C76.179,17.306 74.973,12.11 70.842,7.402 C66.294,2.22 58.078,0 47.566,0 L17.052,0 C14.904,0 13.074,1.563 12.74,3.686 L0.033,84.258 C-0.217,85.848 1.012,87.285 2.62,87.285 L21.458,87.285 L26.19,57.278 L26.043,58.219 C26.378,56.097 28.191,54.533 30.34,54.533 L39.294,54.533 C56.878,54.533 70.647,47.389 74.669,26.729 C74.789,26.119 74.89,25.526 74.981,24.944" id="Shape" opacity="0.7"></path>
                    <path d="M31.274,25.045 C31.475,23.769 32.295,22.723 33.398,22.195 C33.899,21.955 34.46,21.821 35.047,21.821 L58.966,21.821 C61.8,21.821 64.442,22.007 66.857,22.396 C67.547,22.507 68.219,22.635 68.872,22.78 C69.524,22.925 70.158,23.086 70.771,23.266 C71.078,23.355 71.379,23.45 71.676,23.548 C72.862,23.942 73.967,24.406 74.983,24.945 C76.181,17.307 74.975,12.111 70.844,7.403 C66.294,2.22 58.078,0 47.566,0 L17.052,0 C14.904,0 13.074,1.563 12.74,3.686 L0.033,84.258 C-0.217,85.848 1.012,87.285 2.62,87.285 L21.458,87.285 L26.19,57.278 L31.274,25.045 Z" id="Shape"></path>
                </g>
            </g>
        </g>
    </g>
</svg>